<svg viewBox="0 0 78.23 57.7" xmlns="http://www.w3.org/2000/svg"><g fill="#534741"><g transform="translate(-2.1 -4.68)"><path d="m9.82 50.34c0 .66-1.52 1.26-2 1.46-.28.1-.3.18-.34.88v2.16s0 .36.18.36 1.7-.68 2-.8a9.4 9.4 0 0 1 3.4-.8 3.06 3.06 0 0 1 3.08 3c0 2.64-2.78 3.84-4.42 3.84-1.14 0-2.06-.58-2.06-1.62a1.78 1.78 0 0 1 1-1.58.11.11 0 0 1 .1.1c0 .06 0 .1-.08.16a.83.83 0 0 0 -.18.54c0 1 1.1 1 1.3 1 1.32 0 3-.88 3-2.48a2.07 2.07 0 0 0 -1.92-2.2 10.22 10.22 0 0 0 -4.14 1.5c-1.12.6-1.24.66-1.24 1s.06 1.12.06 1.32c0 .92-.3 2.24-1 2.24-.54 0-.76-.42-.92-.74-.64-1.24-.74-1.24-1-1.24a1.67 1.67 0 0 0 -.5.12 4 4 0 0 1 -.76.4c-.22 0-1.24-.6-1.24-1.26 0-.36.22-.78.58-.78.12 0 .7.1.82.1a4.28 4.28 0 0 0 2.08-.68c1-.5 1.14-.56 1.14-1.12s0-2.16 0-2.5c0-.14-.06-.44-.28-.44a4.68 4.68 0 0 0 -.92.18 4.29 4.29 0 0 1 -1.42.38c-.68 0-1.44-1.38-1.44-1.52a.14.14 0 0 1 .16-.14c.06 0 .3.08.36.08a5.81 5.81 0 0 0 .92.1 8.74 8.74 0 0 0 2.54-.6 15 15 0 0 0 .2-2.18 2 2 0 0 0 -.74-1.58 2 2 0 0 1 -.28-.32c0-.18.32-.22.44-.22a2 2 0 0 1 2.06 1.36 8.06 8.06 0 0 1 -.42 1 10.68 10.68 0 0 0 -.2 1.3c0 .08 0 .22.16.22s.7-.22.7-.5c0 0-.1-.24-.1-.28s0-.06.08-.08c.28-.04 1.24.24 1.24.86zm-4.56 7.66c0 .3.54.94.84.94s.56-.56.56-1.54c0-.08 0-.28-.06-.32s-1.34.64-1.34.92zm13.14-6.22c0 .42-.24 1-.66 1h-.68c-.1 0-.52.14-.6.14a.09.09 0 0 1 -.1-.1 1.38 1.38 0 0 1 .06-.16 1.05 1.05 0 0 0 .08-.36c0-.8-1-1.08-1.68-1.08a1.74 1.74 0 0 0 -.78.2.45.45 0 0 1 -.2.06c-.06 0-.08 0-.08-.08a2.56 2.56 0 0 1 2.16-1.26c1.54-.08 2.48.72 2.48 1.64z"/><path d="m29.85 53.92c-.38 0-.54.12-.58.42s-.22 1.72-.22 1.92.08.28.5.56c1.92 1.26 3 2.58 3 3.64 0 .46-.36 1.08-.82 1.08s-.44-.14-.8-1.42c-.4-1.48-1.58-3.2-1.9-3.2-.1 0-.2.28-.36.74a7.57 7.57 0 0 1 -4.67 4.72.14.14 0 0 1 -.16-.14c0-.1 0-.1.4-.38a9 9 0 0 0 3.76-7.44c0-.5-.24-.5-.6-.5-.64 0-1.42 0-2.14 0-.12 0-.72.08-.84.08s-.1 0-.18-.14l-.4-.46a.25.25 0 0 1 -.08-.14s0 0 .08 0l.88.06c.6 0 1.68.08 2.72.08.24 0 .5 0 .6-.24a20.56 20.56 0 0 0 .14-3.06c0-.64 0-.92-.62-.92h-1.21a.78.78 0 0 0 -.72.38c-.6.74-1.58 2-1.84 2s.68-1.32.8-1.58a30.55 30.55 0 0 0 1.92-5c.14-.62.16-.64.24-.64a6.65 6.65 0 0 1 1.86 1c0 .1 0 .1-.46.38a1.71 1.71 0 0 0 -.58.78c-.18.32-1.1 2-1.1 2.06s.14.16.48.16h2.6a2.22 2.22 0 0 0 1.06-.12c.16-.1.74-.88.88-.88s1.34 1 1.34 1.3-.1.24-1 .24h-1.78c-.22 0-.54 0-.58.52 0 .18-.08 2.84-.08 3.06s0 .64.62.64h.42c.84 0 .94 0 1.1-.16s.68-.9.88-.9.16 0 .82.8a2 2 0 0 1 .36.54c0 .24-.38.24-1 .24zm6.15 6.08c-.38 0-.56.16-.56.6v.68a1 1 0 0 1 -1.08 1.08c-.4 0-.44-.14-.44-.56s.08-1.8.08-1.9v-8.12c0-1 0-2.18-.16-3.4 0-.16-.2-.92-.2-1.08s0-.28.2-.28a7.36 7.36 0 0 1 1.16.68 1.27 1.27 0 0 0 .84.3h3c.28 0 .4 0 .56-.2s.46-.56.58-.56 1.26.82 1.26 1.06-.42.62-.46.74a3.87 3.87 0 0 0 -.08 1.14c0 .18 0 8.52.06 8.76v1.22c0 1-.6 1.38-1.12 1.38s-.42-.1-.42-.88c0-.26 0-.64-.58-.64zm-.06-11.48c-.62 0-.62.24-.62 1.2 0 1.4 0 8.94.08 9.36s.4.4.58.4h2.8c.22 0 .48-.06.56-.28s.12-6.14.12-6.5c0-.54 0-3.64-.1-3.9s-.32-.28-.56-.28z"/><path d="m54.59 47.64a1 1 0 0 1 -1 1 3.62 3.62 0 0 1 -1.18-.34 2.74 2.74 0 0 0 -.94-.2 1.33 1.33 0 0 0 -1.47 1.28c0 .18.14 1 .14 1.22s-.14 1.4-.21 1.64c-.1.74-.26 2.44-.26 2.94 0 .3 0 .92.52.92a2.94 2.94 0 0 0 1.16-.48 5.46 5.46 0 0 1 3.26-1.28 3.42 3.42 0 0 1 3.66 3.14c0 2.44-3.18 4.06-6.08 4.06-.26 0-.54 0-.54-.16s.44-.2.58-.24c2.5-.56 4.38-2.14 4.38-4a2.09 2.09 0 0 0 -2.22-2.22 3 3 0 0 0 -2.6 1.5c-.92 1.28-1.14 1.58-1.79 1.58-.84 0-1.52-1-1.52-2.5 0-.84.48-4.52.54-5.26a2.46 2.46 0 0 1 1.82-2.4c1.12-.46 1.6-.66 1.6-1.24a1.47 1.47 0 0 0 -.34-.9c0-.08-.1-.2 0-.26s2.49 1.08 2.49 2.2z"/><path d="m76 48.94c-.14 1.34-.16 1.48-.16 1.6s.16.1.22.1.78-.08.94-.08c.44 0 .62-.06.62-.28s0-.16-.4-.5a.16.16 0 0 1 -.08-.12c0-.08.12-.08.16-.08a10.77 10.77 0 0 1 1.44.36c1.26.36 1.56.68 1.56 1.08s-.58.66-1 .66-2.14-.22-2.5-.22c-1.16 0-1.18 0-1.3 1.08-.38 3-1.46 4-2.18 4s-.76-.22-.94-.8a7.26 7.26 0 0 0 -.38-.88 2.4 2.4 0 0 1 -.26-.42s.06 0 .1 0c.22 0 1.12.36 1.3.36a.72.72 0 0 0 .68-.52 8.88 8.88 0 0 0 .58-2.28c0-.16 0-.26-.3-.26s-4 .8-4.3 1.24a1.61 1.61 0 0 0 -.18.82c0 .66-.06 2.48-.06 2.54 0 1.88.36 2.82 3.16 2.82a9 9 0 0 0 1.76-.16 6.31 6.31 0 0 1 1-.14 1 1 0 0 1 1.08.86c0 .94-1.82.94-2.28.94-5.72 0-5.72-1.6-5.72-5.4 0-1.68 0-1.88-.36-1.88s-1.72.62-2 .62-2.06-.38-2.06-1.48c0-.26.08-.28.26-.28s1 .08 1.22.08a9.37 9.37 0 0 0 2.53-.32c.32-.1.34-.28.34-1a4.88 4.88 0 0 0 -.32-2.1c-.06-.16-.46-.86-.46-.94s.34-.28.58-.28c.48 0 1.72.56 1.72 1.26a4.09 4.09 0 0 1 -.1.62 11 11 0 0 0 -.1 1.54c0 .42 0 .58.26.58s2.66-.56 3.18-.64c1.24-.2 1.38-.22 1.46-.64s.1-1.36.1-1.62a3 3 0 0 0 -.24-1.38s-.38-.7-.38-.74c0-.2.34-.22.44-.22a1.62 1.62 0 0 1 1.7 1.4s-.28.92-.33 1.1z"/><path d="m22.24 4.82h.76v.9a3.65 3.65 0 0 1 2.45-1.05 2.17 2.17 0 0 1 1.64.65 2.57 2.57 0 0 1 .57 1.91v4h-.76v-3.85a2.13 2.13 0 0 0 -.41-1.53 1.57 1.57 0 0 0 -1.19-.46 3.33 3.33 0 0 0 -2.3 1.15v4.68h-.77z"/><path d="m32.74 8.23a2.56 2.56 0 0 0 2.72 2.44 3.52 3.52 0 0 0 2.14-.74v.83a4.24 4.24 0 0 1 -2.19.6 3.25 3.25 0 0 1 -3.41-3.36 3.18 3.18 0 0 1 3.16-3.34 2.79 2.79 0 0 1 2.83 3v.55zm4.49-.64a2.06 2.06 0 0 0 -2.11-2.22 2.39 2.39 0 0 0 -2.35 2.22z"/><path d="m41.43 4.82h.82l1.13 3.24.73 2.13.74-2.09 1.19-3.28h.53l1.18 3.18c.24.68.53 1.48.76 2.16.22-.68.49-1.47.71-2.11l1.14-3.25h.79l-2.25 6.4h-.77l-1.13-3.1c-.19-.55-.51-1.43-.7-2-.19.57-.5 1.45-.71 2l-1.12 3.1h-.79z"/><path d="m54.9 10a4.51 4.51 0 0 0 2.42.68c1.08 0 1.76-.38 1.76-1.14 0-1-1.06-1.07-2.06-1.23s-2.28-.48-2.28-1.78 1-1.83 2.49-1.83a5 5 0 0 1 2.3.55v.75a4.48 4.48 0 0 0 -2.33-.65c-1 0-1.69.35-1.69 1.08 0 .9 1 1 2 1.15 1.16.18 2.34.49 2.34 1.84s-1 1.91-2.57 1.91a5 5 0 0 1 -2.38-.56z"/></g><path d="m34.77 20.54h10v1h-10z"/></g></svg>