<svg viewBox="0 0 40.12 21.54" xmlns="http://www.w3.org/2000/svg"><g fill="#534741"><g transform="translate(-1.13 -4.68)"><path d="m10.28 7.33a2.08 2.08 0 0 0 -.4-1.49 1.54 1.54 0 0 0 -1.16-.44 3.32 3.32 0 0 0 -2.28 1.11v.69 4h-.73v-3.87a2 2 0 0 0 -.39-1.49 1.56 1.56 0 0 0 -1.17-.44 3.29 3.29 0 0 0 -2.25 1.09v4.73h-.77v-6.4h.77v.87a3.52 3.52 0 0 1 2.37-1 2 2 0 0 1 2 1.18 3.72 3.72 0 0 1 2.58-1.19 2.17 2.17 0 0 1 1.64.64 2.5 2.5 0 0 1 .56 1.88v4h-.77z"/><path d="m16.11 8.23a2.56 2.56 0 0 0 2.72 2.44 3.54 3.54 0 0 0 2.17-.74v.83a4.25 4.25 0 0 1 -2.2.6 3.25 3.25 0 0 1 -3.45-3.36 3.18 3.18 0 0 1 3.16-3.34 2.8 2.8 0 0 1 2.84 3v.55zm4.48-.64a2.06 2.06 0 0 0 -2.1-2.22 2.4 2.4 0 0 0 -2.36 2.22z"/><path d="m25.69 4.82h.76v.9a3.68 3.68 0 0 1 2.46-1.05 2.15 2.15 0 0 1 1.63.65 2.57 2.57 0 0 1 .58 1.91v4h-.77v-3.85a2.18 2.18 0 0 0 -.35-1.53 1.6 1.6 0 0 0 -1.2-.45 3.34 3.34 0 0 0 -2.33 1.14v4.68h-.76z"/><path d="m40.45 10.3a3.53 3.53 0 0 1 -2.45 1.06 2.19 2.19 0 0 1 -1.67-.67 2.86 2.86 0 0 1 -.56-2v-3.87h.76v3.72a2.4 2.4 0 0 0 .47 1.64 1.59 1.59 0 0 0 1.21.48 3.27 3.27 0 0 0 2.31-1.18v-4.66h.77v6.4h-.77v-.91z"/></g><path d="m16.16 20.54h10v1h-10z"/></g></svg>